# xmcd
#
# Track frame offsets: 
#        150
#        10830
#        24770
#        36725
#        49682
#        62480
#        74280
#        86600
#        101292
#        114022
#        128667
#        140575
#        153825
#        166820
#        180890
#        194087
#        217202
#        243542
#        257355
#        271837
#        298600
#
# Disc length: 4146 seconds
#
# Revision: 4
# Processed by: cddbd v1.5.1PL0 Copyright (c) Steve Scherf et al.
# Submitted via: ExactAudioCopy v0.95b3
#
DISCID=1b103015
DTITLE=Howlin' Wolf - The Chess Box - Disc 3 (1963 - 1973)
DYEAR=1991
DGENRE=Blues
TTITLE0=Hidden Charms (1963)
TTITLE1=Three Hundred Pounds Of Joy (1963)
TTITLE2=Built For Comfort (1963)
TTITLE3=Love Me Darlin' (1964)
TTITLE4=Killing Floor (1964)
TTITLE5=My Country Sugar Mama (1964)
TTITLE6=Louise (1964)
TTITLE7=I Walked From Dallas (1965)
TTITLE8=Tell Me What I've Done (1965)
TTITLE9=Don't Laugh At Me (1965)
TTITLE10=Ooh Baby, Hold Me (1965)
TTITLE11=New Crawlin' King Snake (1966)
TTITLE12=My Mind Is Ramblin' (1966)
TTITLE13=Commit A Crime (1966)
TTITLE14=Dust My Broom (1967)
TTITLE15=I'm The Wolf (acoustic solo) (1968)
TTITLE16=Ain't Goin' Down That Dirt Road (acoustic solo) (1968)
TTITLE17=Mary Sue (1969)
TTITLE18=Hard Luck (1969)
TTITLE19=The Red Rooster (London Sessions w/false start and dialog) (1
TTITLE19=970)
TTITLE20=Moving (1973)
EXTD=
EXTT0=
EXTT1=
EXTT2=
EXTT3=
EXTT4=
EXTT5=
EXTT6=
EXTT7=
EXTT8=
EXTT9=
EXTT10=
EXTT11=
EXTT12=
EXTT13=
EXTT14=
EXTT15=
EXTT16=
EXTT17=
EXTT18=
EXTT19=
EXTT20=
PLAYORDER=
